<?xml version='1.0' encoding='utf-8'?>
<svg xmlns="http://www.w3.org/2000/svg" enable-background="new 0 0 2560 1600" version="1.1" viewBox="0 0 2560 1600">
<pattern id="a" y="1600" width="200" height="300" overflow="visible" patternUnits="userSpaceOnUse" viewBox="100 -400 200 300">
		<polygon points="100 -400 300 -400 300 -100 100 -100" fill="none"/>
		<path d="m306.59-169.95c1.8486 5.3319 4.1608 10.573 7.5152 15.146 0.2907 0.4498 0.6857 0.8969 0.6555 1.4729-0.2469 0.5979-0.7515 1.0368-1.1629 1.5222-2.3341 2.6001-4.2047 5.587-5.7351 8.7193-3.3763 6.942-5.2579 14.523-6.2645 22.151-0.5129 3.5327-0.6747 7.101-0.5979 10.667-0.0767 3.1964 0.4092 6.5598-0.7249 9.6143 1.3579-2.9619 4.0797-4.9965 6.2857-7.311 2.5756-2.4669 4.9843-5.1046 7.1197-7.9652 4.6818-6.1053 8.7119-12.796 11.233-20.092 1.1326-3.297 1.922-6.7318 2.1101-10.221 0.0524-0.6342 0.0058-1.3014 0.2541-1.8987 0.386-0.4286 0.9814-0.4655 1.505-0.578 5.6049-0.8611 10.946-2.9324 16.024-5.3955 9.2422-4.533 17.61-10.534 25.906-16.589-6.055 8.2963-12.056 16.664-16.589 25.906-2.4631 5.0774-4.5344 10.419-5.3955 16.024-0.1125 0.5237-0.1493 1.119-0.5779 1.505-0.5974 0.2482-1.2645 0.2017-1.8987 0.2541-3.489 0.1881-6.9238 0.9775-10.221 2.1101-7.2961 2.5213-13.987 6.5514-20.092 11.233-2.8607 2.1353-5.4983 4.5441-7.9652 7.1197-2.3145 2.206-4.3491 4.9278-7.311 6.2857 3.0546-1.1342 6.4179-0.6482 9.6143-0.725 3.5656 0.0768 7.134-0.085 10.667-0.5979 7.6276-1.0066 15.209-2.8882 22.151-6.2645 3.1323-1.5305 6.1191-3.401 8.7193-5.7351 0.4855-0.4114 0.9243-0.9161 1.5222-1.1629 0.576-0.0302 1.023 0.3648 1.4729 0.6555 4.5722 3.3544 9.8136 5.6666 15.146 7.5152 9.7406 3.3299 19.9 5.0033 30.048 6.5881-10.148 1.5849-20.308 3.2582-30.048 6.5881-5.3319 1.8486-10.573 4.1608-15.146 7.5152-0.4498 0.2907-0.8969 0.6857-1.4729 0.6555-0.5979-0.2469-1.0368-0.7515-1.5222-1.1629-2.6001-2.3341-5.587-4.2047-8.7193-5.7351-6.942-3.3763-14.523-5.2579-22.151-6.2645-3.5327-0.5129-7.101-0.6747-10.667-0.5979-3.1964-0.0767-6.5598 0.4092-9.6143-0.725 2.9619 1.3579 4.9965 4.0798 7.311 6.2857 2.4669 2.5756 5.1046 4.9843 7.9652 7.1197 6.1053 4.6818 12.796 8.7119 20.092 11.233 3.297 1.1326 6.7318 1.922 10.221 2.1101 0.6342 0.0524 1.3014 0.0058 1.8987 0.2541 0.4286 0.3859 0.4655 0.9813 0.5779 1.505 0.8611 5.605 2.9324 10.946 5.3955 16.024 4.5331 9.2422 10.534 17.61 16.589 25.906-8.2963-6.055-16.664-12.056-25.906-16.589-5.0775-2.4631-10.419-4.5344-16.024-5.3955-0.5237-0.1125-1.119-0.1493-1.505-0.578-0.2482-0.5973-0.2017-1.2645-0.2541-1.8987-0.1881-3.489-0.9775-6.9238-2.1101-10.221-2.5213-7.2962-6.5514-13.987-11.233-20.092-2.1353-2.8606-4.5441-5.4983-7.1196-7.9652-2.206-2.3145-4.9278-4.3491-6.2857-7.311 1.1342 3.0546 0.6482 6.4179 0.7249 9.6143-0.0768 3.5656 0.085 7.134 0.5979 10.667 1.0066 7.6276 2.8882 15.209 6.2645 22.151 1.5305 3.1322 3.401 6.1191 5.7351 8.7193 0.4114 0.4855 0.9161 0.9243 1.1629 1.5222 0.0302 0.576-0.3648 1.023-0.6555 1.4729-3.3544 4.5722-5.6666 9.8136-7.5152 15.146-3.3302 9.7405-5.0035 19.9-6.5884 30.048-1.5849-10.148-3.2582-20.308-6.5881-30.048-1.8486-5.3319-4.1608-10.573-7.5152-15.146-0.2907-0.4498-0.6857-0.8969-0.6555-1.4729 0.2469-0.5979 0.7515-1.0368 1.1629-1.5222 2.3341-2.6001 4.2047-5.587 5.7351-8.7193 3.3763-6.942 5.2579-14.523 6.2645-22.151 0.5129-3.5327 0.6747-7.101 0.5979-10.667 0.0767-3.1964-0.4092-6.5598 0.725-9.6143-1.3579 2.9619-4.0798 4.9965-6.2857 7.311-2.5756 2.4669-4.9843 5.1046-7.1197 7.9652-4.6818 6.1053-8.7119 12.796-11.233 20.092-1.1327 3.297-1.922 6.7318-2.1101 10.221-0.0524 0.6342-0.0058 1.3014-0.2541 1.8987-0.3859 0.4286-0.9814 0.4655-1.505 0.578-5.6049 0.8611-10.946 2.9324-16.024 5.3955-9.2422 4.5331-17.61 10.534-25.906 16.589 6.055-8.2963 12.056-16.664 16.589-25.906 2.4631-5.0774 4.5344-10.419 5.3955-16.024 0.1125-0.5237 0.1493-1.119 0.578-1.505 0.5973-0.2482 1.2645-0.2017 1.8987-0.2541 3.489-0.1881 6.9238-0.9775 10.221-2.1101 7.2961-2.5213 13.987-6.5514 20.092-11.233 2.8606-2.1353 5.4983-4.5441 7.9652-7.1197 2.3145-2.206 4.3491-4.9278 7.311-6.2857-3.0546 1.1342-6.4179 0.6482-9.6143 0.725-3.5656-0.0768-7.1339 0.085-10.667 0.5979-7.6276 1.0066-15.209 2.8882-22.151 6.2645-3.1322 1.5305-6.1191 3.401-8.7193 5.7351-0.4855 0.4114-0.9243 0.9161-1.5222 1.1629-0.576 0.0302-1.023-0.3648-1.4729-0.6555-4.5722-3.3544-9.8136-5.6666-15.146-7.5152-9.7405-3.3299-19.9-5.0032-30.048-6.5881 10.148-1.5848 20.308-3.2582 30.048-6.5881 5.3319-1.8486 10.573-4.1608 15.146-7.5152 0.4498-0.2907 0.8969-0.6857 1.4729-0.6555 0.5979 0.2469 1.0368 0.7515 1.5222 1.1629 2.6001 2.3341 5.587 4.2047 8.7193 5.7351 6.942 3.3763 14.523 5.2579 22.151 6.2645 3.5327 0.5129 7.101 0.6747 10.667 0.5979 3.1964 0.0767 6.5598-0.4092 9.6143 0.725-2.9619-1.3579-4.9965-4.0798-7.311-6.2857-2.4669-2.5756-5.1046-4.9843-7.9652-7.1197-6.1053-4.6818-12.796-8.7119-20.092-11.233-3.297-1.1327-6.7318-1.922-10.221-2.1101-0.6342-0.0524-1.3014-0.0058-1.8987-0.2541-0.4286-0.3859-0.4655-0.9813-0.578-1.505-0.8611-5.6049-2.9324-10.946-5.3955-16.024-4.5331-9.2423-10.534-17.61-16.589-25.906 8.2963 6.055 16.664 12.056 25.906 16.589 5.0774 2.4631 10.419 4.5344 16.024 5.3955 0.5237 0.1125 1.119 0.1493 1.505 0.578 0.2482 0.5973 0.2017 1.2645 0.2541 1.8987 0.1881 3.489 0.9774 6.9238 2.1101 10.221 2.5213 7.2961 6.5514 13.987 11.233 20.092 2.1353 2.8606 4.5441 5.4983 7.1197 7.9652 2.206 2.3145 4.9278 4.3491 6.2857 7.311-1.1342-3.0546-0.6483-6.4179-0.725-9.6143 0.0768-3.5656-0.085-7.1339-0.5979-10.667-1.0066-7.6276-2.8882-15.209-6.2645-22.151-1.5305-3.1323-3.401-6.1191-5.7351-8.7193-0.4114-0.4855-0.9161-0.9243-1.1629-1.5222-0.0302-0.576 0.3648-1.0231 0.6555-1.4729 3.3544-4.5722 5.6666-9.8136 7.5152-15.146 3.3299-9.7406 5.0033-19.9 6.5881-30.048 1.5848 10.148 3.2581 20.308 6.5881 30.048zm-6.0396 39.564c0.8667-4.4597 1.3467-9.0264 2.847-13.338 1.0916-3.1843 3.5574-5.6885 4.575-8.9003 0.4443-2.4356 0.0713-4.9562-0.6994-7.2903-1.4619-4.745-3.7165-9.2212-4.8684-14.065-1.0689-4.659-1.7581-9.3909-2.4026-14.125-0.6446 4.7342-1.3337 9.4661-2.4027 14.125-1.1519 4.8437-3.4065 9.3199-4.8684 14.065-0.7707 2.3341-1.1437 4.8547-0.6994 7.2903 1.0175 3.2118 3.4833 5.7159 4.5749 8.9003 1.5003 4.3116 1.9803 8.8784 2.847 13.338 0.1896 0.8484 0.3523 1.7074 0.5486 2.5571 0.1961-0.8498 0.3588-1.7087 0.5484-2.5571zm21.326 9.288c3.7664-2.5406 7.335-5.4304 11.445-7.4183 3.0236-1.4798 6.5378-1.5069 9.5284-3.0585 2.0364-1.408 3.555-3.4541 4.6605-5.6496 2.3215-4.3889 3.8924-9.1483 6.5029-13.388 2.5385-4.0503 5.3972-7.8835 8.289-11.687-3.8034 2.8918-7.6366 5.7505-11.687 8.289-4.2396 2.6105-8.999 4.1814-13.388 6.5029-2.1954 1.1055-4.2415 2.6241-5.6496 4.6605-1.5515 2.9906-1.5787 6.5049-3.0585 9.5284-1.9879 4.1097-4.8777 7.6782-7.4183 11.445-0.4659 0.7339-0.9582 1.4564-1.4202 2.196 0.7396-0.462 1.4621-0.9543 2.196-1.4202zm8.5123 21.648c4.4597 0.8667 9.0265 1.3467 13.338 2.847 3.1844 1.0916 5.6885 3.5574 8.9003 4.5749 2.4356 0.4443 4.9562 0.0713 7.2903-0.6994 4.745-1.4619 9.2212-3.7164 14.065-4.8684 4.659-1.069 9.3909-1.7581 14.125-2.4027-4.7342-0.6446-9.4661-1.3337-14.125-2.4027-4.8437-1.152-9.3199-3.4065-14.065-4.8684-2.3341-0.7707-4.8547-1.1437-7.2903-0.6994-3.2118 1.0176-5.7159 3.4833-8.9003 4.5749-4.3116 1.5003-8.8784 1.9803-13.338 2.847-0.8484 0.1896-1.7074 0.3523-2.5571 0.5486 0.8497 0.1962 1.7088 0.359 2.5571 0.5486zm-9.288 21.326c2.5406 3.7664 5.4304 7.335 7.4183 11.445 1.4798 3.0236 1.5069 6.5378 3.0585 9.5284 1.4081 2.0364 3.4541 3.555 5.6496 4.6604 4.3889 2.3215 9.1483 3.8924 13.388 6.5029 4.0503 2.5385 7.8835 5.3972 11.687 8.289-2.8918-3.8034-5.7505-7.6366-8.289-11.687-2.6105-4.2396-4.1814-8.999-6.5029-13.388-1.1055-2.1954-2.6241-4.2415-4.6605-5.6496-2.9906-1.5515-6.5049-1.5787-9.5284-3.0585-4.1096-1.9879-7.6782-4.8777-11.445-7.4183-0.7339-0.4659-1.4564-0.9582-2.196-1.4202 0.462 0.7397 0.9543 1.4622 1.4202 2.1961zm-21.648 8.5123c-0.8667 4.4597-1.3467 9.0265-2.847 13.338-1.0916 3.1844-3.5574 5.6885-4.575 8.9003-0.4443 2.4356-0.0713 4.9562 0.6994 7.2903 1.4619 4.745 3.7165 9.2212 4.8684 14.065 1.069 4.659 1.7581 9.3909 2.4026 14.125 0.6446-4.7342 1.3337-9.4661 2.4027-14.125 1.1519-4.8437 3.4065-9.3199 4.8684-14.065 0.7707-2.3341 1.1437-4.8547 0.6994-7.2903-1.0175-3.2118-3.4833-5.7159-4.5749-8.9003-1.5003-4.3116-1.9803-8.8784-2.847-13.338-0.1896-0.8484-0.3523-1.7074-0.5486-2.5571-0.196 0.8497-0.3588 1.7087-0.5484 2.5571zm-21.326-9.288c-3.7664 2.5406-7.335 5.4304-11.445 7.4183-3.0236 1.4798-6.5378 1.5069-9.5284 3.0585-2.0364 1.408-3.555 3.4541-4.6605 5.6496-2.3215 4.3889-3.8924 9.1483-6.5029 13.388-2.5385 4.0503-5.3972 7.8835-8.289 11.687 3.8034-2.8918 7.6366-5.7505 11.687-8.289 4.2396-2.6105 8.9989-4.1814 13.388-6.5029 2.1954-1.1055 4.2415-2.6241 5.6496-4.6604 1.5515-2.9906 1.5787-6.5049 3.0585-9.5284 1.9879-4.1096 4.8777-7.6782 7.4183-11.445 0.4659-0.7339 0.9582-1.4564 1.4202-2.196-0.7396 0.4619-1.4621 0.9542-2.196 1.4201zm-8.5123-21.648c-4.4597-0.8667-9.0264-1.3467-13.338-2.847-3.1843-1.0916-5.6885-3.5574-8.9003-4.5749-2.4356-0.4443-4.9562-0.0713-7.2903 0.6994-4.745 1.4619-9.2212 3.7165-14.065 4.8684-4.659 1.069-9.3909 1.7581-14.125 2.4027 4.7342 0.6446 9.4661 1.3337 14.125 2.4027 4.8437 1.152 9.3199 3.4065 14.065 4.8684 2.3341 0.7707 4.8547 1.1437 7.2903 0.6994 3.2118-1.0176 5.7159-3.4833 8.9003-4.5749 4.3116-1.5003 8.8784-1.9803 13.338-2.847 0.8484-0.1896 1.7074-0.3523 2.5571-0.5486-0.8497-0.1963-1.7087-0.359-2.5571-0.5486zm9.2881-21.326c-2.5406-3.7664-5.4304-7.3349-7.4183-11.445-1.4798-3.0235-1.5069-6.5378-3.0585-9.5284-1.408-2.0364-3.4541-3.555-5.6496-4.6605-4.3889-2.3215-9.1483-3.8924-13.388-6.5029-4.0503-2.5385-7.8835-5.3972-11.687-8.289 2.8918 3.8034 5.7505 7.6366 8.289 11.687 2.6105 4.2396 4.1814 8.999 6.5029 13.388 1.1055 2.1954 2.6241 4.2415 4.6605 5.6496 2.9906 1.5515 6.5049 1.5787 9.5284 3.0585 4.1096 1.9879 7.6782 4.8777 11.445 7.4183 0.7339 0.4659 1.4564 0.9582 2.196 1.4202-0.4621-0.7396-0.9544-1.4621-1.4202-2.196z"/>
		<path d="m106.59-169.95c1.8486 5.3319 4.1608 10.573 7.5152 15.146 0.2907 0.4498 0.6857 0.8969 0.6555 1.4729-0.2469 0.5979-0.7515 1.0368-1.1629 1.5222-2.3341 2.6001-4.2047 5.587-5.7351 8.7193-3.3763 6.942-5.2579 14.523-6.2645 22.151-0.5129 3.5327-0.6747 7.101-0.5979 10.667-0.0767 3.1964 0.4092 6.5598-0.725 9.6143 1.3579-2.9619 4.0798-4.9965 6.2857-7.311 2.5756-2.4669 4.9843-5.1046 7.1197-7.9652 4.6818-6.1053 8.7119-12.796 11.233-20.092 1.1326-3.297 1.922-6.7318 2.1101-10.221 0.0524-0.6342 0.0058-1.3014 0.2541-1.8987 0.3859-0.4286 0.9813-0.4655 1.505-0.578 5.605-0.8611 10.946-2.9324 16.024-5.3955 9.2422-4.533 17.61-10.534 25.906-16.589-6.055 8.2963-12.056 16.664-16.589 25.906-2.4631 5.0774-4.5344 10.419-5.3955 16.024-0.1125 0.5237-0.1493 1.119-0.578 1.505-0.5973 0.2482-1.2645 0.2017-1.8987 0.2541-3.489 0.1881-6.9238 0.9775-10.221 2.1101-7.2962 2.5213-13.987 6.5514-20.092 11.233-2.8606 2.1353-5.4983 4.5441-7.9652 7.1197-2.3145 2.206-4.3491 4.9278-7.311 6.2857 3.0546-1.1342 6.4179-0.6482 9.6143-0.725 3.5656 0.0768 7.134-0.085 10.667-0.5979 7.6276-1.0066 15.209-2.8882 22.151-6.2645 3.1322-1.5305 6.1191-3.401 8.7193-5.7351 0.4855-0.4114 0.9243-0.9161 1.5222-1.1629 0.576-0.0302 1.023 0.3648 1.4729 0.6555 4.5722 3.3544 9.8136 5.6666 15.146 7.5152 9.7406 3.3299 19.9 5.0033 30.048 6.5881-10.148 1.5849-20.308 3.2582-30.048 6.5881-5.3319 1.8486-10.573 4.1608-15.146 7.5152-0.4498 0.2907-0.8969 0.6857-1.4729 0.6555-0.5979-0.2469-1.0368-0.7515-1.5222-1.1629-2.6001-2.3341-5.587-4.2047-8.7193-5.7351-6.942-3.3763-14.523-5.2579-22.151-6.2645-3.5327-0.5129-7.101-0.6747-10.667-0.5979-3.1964-0.0767-6.5598 0.4092-9.6143-0.725 2.9619 1.3579 4.9965 4.0798 7.311 6.2857 2.4669 2.5756 5.1046 4.9843 7.9652 7.1197 6.1053 4.6818 12.796 8.7119 20.092 11.233 3.297 1.1326 6.7318 1.922 10.221 2.1101 0.6342 0.0524 1.3014 0.0058 1.8987 0.2541 0.4286 0.3859 0.4655 0.9813 0.578 1.505 0.8611 5.605 2.9324 10.946 5.3955 16.024 4.5331 9.2422 10.534 17.61 16.589 25.906-8.2963-6.055-16.664-12.056-25.906-16.589-5.0774-2.4631-10.419-4.5344-16.024-5.3955-0.5237-0.1125-1.119-0.1493-1.505-0.578-0.2482-0.5973-0.2017-1.2645-0.2541-1.8987-0.1881-3.489-0.9775-6.9238-2.1101-10.221-2.5213-7.2962-6.5514-13.987-11.233-20.092-2.1353-2.8606-4.5441-5.4983-7.1197-7.9652-2.206-2.3145-4.9278-4.3491-6.2857-7.311 1.1342 3.0546 0.6482 6.4179 0.725 9.6143-0.0768 3.5656 0.085 7.134 0.5979 10.667 1.0066 7.6276 2.8882 15.209 6.2645 22.151 1.5305 3.1322 3.401 6.1191 5.7351 8.7193 0.4114 0.4855 0.9161 0.9243 1.1629 1.5222 0.0302 0.576-0.3648 1.023-0.6555 1.4729-3.3544 4.5722-5.6666 9.8136-7.5152 15.146-3.33 9.7405-5.0033 19.9-6.5882 30.048-1.5848-10.148-3.2582-20.308-6.5881-30.048-1.8486-5.3319-4.1608-10.573-7.5152-15.146-0.2907-0.4498-0.6857-0.8969-0.6555-1.4729 0.2469-0.5979 0.7515-1.0368 1.1629-1.5222 2.3341-2.6001 4.2047-5.587 5.7351-8.7193 3.3763-6.942 5.2579-14.523 6.2645-22.151 0.5129-3.5327 0.6747-7.101 0.5979-10.667 0.0767-3.1964-0.4092-6.5598 0.725-9.6143-1.3579 2.9619-4.0798 4.9965-6.2857 7.311-2.5756 2.4669-4.9843 5.1046-7.1197 7.9652-4.6818 6.1053-8.7119 12.796-11.233 20.092-1.1327 3.297-1.922 6.7318-2.1101 10.221-0.0524 0.6342-0.0058 1.3014-0.2541 1.8987-0.3859 0.4286-0.9813 0.4655-1.505 0.578-5.605 0.8611-10.946 2.9324-16.024 5.3955-9.2423 4.5331-17.61 10.534-25.906 16.589 6.055-8.2963 12.056-16.664 16.589-25.906 2.4631-5.0774 4.5344-10.419 5.3955-16.024 0.1125-0.5237 0.1493-1.119 0.578-1.505 0.5973-0.2482 1.2645-0.2017 1.8987-0.2541 3.489-0.1881 6.9238-0.9775 10.221-2.1101 7.2961-2.5213 13.987-6.5514 20.092-11.233 2.8606-2.1353 5.4983-4.5441 7.9652-7.1197 2.3145-2.206 4.3491-4.9278 7.311-6.2857-3.0546 1.1342-6.4179 0.6482-9.6143 0.725-3.5656-0.0768-7.134 0.085-10.667 0.5979-7.6276 1.0066-15.209 2.8882-22.151 6.2645-3.1323 1.5305-6.1191 3.401-8.7193 5.7351-0.4855 0.4114-0.9243 0.9161-1.5222 1.1629-0.576 0.0302-1.023-0.3648-1.4729-0.6555-4.5722-3.3544-9.8136-5.6666-15.146-7.5152-9.7405-3.3299-19.9-5.0032-30.048-6.5881 10.148-1.5848 20.308-3.2582 30.048-6.5881 5.3319-1.8486 10.573-4.1608 15.146-7.5152 0.4498-0.2907 0.8969-0.6857 1.4729-0.6555 0.5979 0.2469 1.0368 0.7515 1.5222 1.1629 2.6001 2.3341 5.587 4.2047 8.7193 5.7351 6.942 3.3763 14.523 5.2579 22.151 6.2645 3.5327 0.5129 7.101 0.6747 10.667 0.5979 3.1964 0.0767 6.5598-0.4092 9.6143 0.725-2.9619-1.3579-4.9965-4.0798-7.311-6.2857-2.4669-2.5756-5.1046-4.9843-7.9652-7.1197-6.1053-4.6818-12.796-8.7119-20.092-11.233-3.297-1.1327-6.7318-1.922-10.221-2.1101-0.6342-0.0524-1.3014-0.0058-1.8987-0.2541-0.4286-0.3859-0.4655-0.9813-0.578-1.505-0.8611-5.6049-2.9324-10.946-5.3955-16.024-4.533-9.2423-10.534-17.61-16.589-25.906 8.2963 6.055 16.664 12.056 25.906 16.589 5.0774 2.4631 10.419 4.5344 16.024 5.3955 0.5237 0.1125 1.119 0.1493 1.505 0.578 0.2482 0.5973 0.2017 1.2645 0.2541 1.8987 0.1881 3.489 0.9775 6.9238 2.1101 10.221 2.5213 7.2961 6.5514 13.987 11.233 20.092 2.1353 2.8606 4.5441 5.4983 7.1197 7.9652 2.206 2.3145 4.9278 4.3491 6.2857 7.311-1.1342-3.0546-0.6482-6.4179-0.725-9.6143 0.0768-3.5656-0.085-7.1339-0.5979-10.667-1.0066-7.6276-2.8882-15.209-6.2645-22.151-1.5305-3.1323-3.401-6.1191-5.7351-8.7193-0.4114-0.4855-0.9161-0.9243-1.1629-1.5222-0.0302-0.576 0.3648-1.0231 0.6555-1.4729 3.3544-4.5722 5.6666-9.8136 7.5152-15.146 3.3298-9.7405 5.0032-19.9 6.588-30.048 1.5849 10.148 3.2582 20.308 6.5882 30.048zm-6.0396 39.564c0.8667-4.4597 1.3467-9.0264 2.847-13.338 1.0916-3.1843 3.5574-5.6885 4.5749-8.9003 0.4443-2.4356 0.0713-4.9562-0.6994-7.2903-1.4619-4.745-3.7164-9.2212-4.8684-14.065-1.069-4.659-1.7581-9.3909-2.4027-14.125-0.6446 4.7342-1.3337 9.4661-2.4027 14.125-1.152 4.8437-3.4065 9.3199-4.8684 14.065-0.7707 2.3341-1.1437 4.8547-0.6994 7.2903 1.0176 3.2118 3.4833 5.7159 4.5749 8.9003 1.5003 4.3116 1.9803 8.8784 2.847 13.338 0.1896 0.8484 0.3523 1.7074 0.5486 2.5571 0.1963-0.8498 0.359-1.7087 0.5486-2.5571zm21.326 9.288c3.7664-2.5406 7.3349-5.4304 11.445-7.4183 3.0236-1.4798 6.5378-1.5069 9.5284-3.0585 2.0364-1.408 3.555-3.4541 4.6604-5.6496 2.3215-4.3889 3.8924-9.1483 6.5029-13.388 2.5385-4.0503 5.3972-7.8835 8.289-11.687-3.8034 2.8918-7.6366 5.7505-11.687 8.289-4.2396 2.6105-8.999 4.1814-13.388 6.5029-2.1954 1.1055-4.2415 2.6241-5.6496 4.6605-1.5515 2.9906-1.5787 6.5049-3.0585 9.5284-1.9879 4.1097-4.8777 7.6782-7.4183 11.445-0.4659 0.7339-0.9582 1.4564-1.4202 2.196 0.7397-0.462 1.4622-0.9543 2.1961-1.4202zm8.5123 21.648c4.4597 0.8667 9.0265 1.3467 13.338 2.847 3.1844 1.0916 5.6885 3.5574 8.9003 4.5749 2.4356 0.4443 4.9562 0.0713 7.2903-0.6994 4.745-1.4619 9.2212-3.7164 14.065-4.8684 4.659-1.069 9.3909-1.7581 14.125-2.4027-4.7342-0.6446-9.4661-1.3337-14.125-2.4027-4.8437-1.152-9.3199-3.4065-14.065-4.8684-2.3341-0.7707-4.8547-1.1437-7.2903-0.6994-3.2118 1.0176-5.7159 3.4833-8.9003 4.5749-4.3116 1.5003-8.8784 1.9803-13.338 2.847-0.8484 0.1896-1.7074 0.3523-2.5571 0.5486 0.8497 0.1962 1.7087 0.359 2.5571 0.5486zm-9.288 21.326c2.5406 3.7664 5.4304 7.335 7.4183 11.445 1.4798 3.0236 1.5069 6.5378 3.0585 9.5284 1.408 2.0364 3.4541 3.555 5.6496 4.6604 4.3889 2.3215 9.1483 3.8924 13.388 6.5029 4.0503 2.5385 7.8835 5.3972 11.687 8.289-2.8918-3.8034-5.7505-7.6366-8.289-11.687-2.6105-4.2396-4.1814-8.999-6.5029-13.388-1.1055-2.1954-2.6241-4.2415-4.6604-5.6496-2.9906-1.5515-6.5049-1.5787-9.5284-3.0585-4.1096-1.9879-7.6782-4.8777-11.445-7.4183-0.7339-0.4659-1.4564-0.9582-2.196-1.4202 0.4619 0.7397 0.9542 1.4622 1.4201 2.1961zm-21.648 8.5123c-0.8667 4.4597-1.3467 9.0265-2.847 13.338-1.0916 3.1844-3.5574 5.6885-4.5749 8.9003-0.4443 2.4356-0.0713 4.9562 0.6994 7.2903 1.4619 4.745 3.7165 9.2212 4.8684 14.065 1.069 4.659 1.7581 9.3909 2.4027 14.125 0.6446-4.7342 1.3337-9.4661 2.4027-14.125 1.152-4.8437 3.4065-9.3199 4.8684-14.065 0.7707-2.3341 1.1437-4.8547 0.6994-7.2903-1.0176-3.2118-3.4833-5.7159-4.5749-8.9003-1.5003-4.3116-1.9803-8.8784-2.847-13.338-0.1896-0.8484-0.3523-1.7074-0.5486-2.5571-0.1962 0.8497-0.359 1.7087-0.5486 2.5571zm-21.326-9.288c-3.7664 2.5406-7.3349 5.4304-11.445 7.4183-3.0236 1.4798-6.5378 1.5069-9.5284 3.0585-2.0364 1.408-3.555 3.4541-4.6605 5.6496-2.3215 4.3889-3.8924 9.1483-6.5029 13.388-2.5385 4.0503-5.3972 7.8835-8.289 11.687 3.8034-2.8918 7.6366-5.7505 11.687-8.289 4.2396-2.6105 8.999-4.1814 13.388-6.5029 2.1954-1.1055 4.2415-2.6241 5.6496-4.6604 1.5515-2.9906 1.5787-6.5049 3.0585-9.5284 1.9879-4.1096 4.8777-7.6782 7.4183-11.445 0.4659-0.7339 0.9582-1.4564 1.4202-2.196-0.7396 0.4619-1.4621 0.9542-2.196 1.4201zm-8.5123-21.648c-4.4597-0.8667-9.0264-1.3467-13.338-2.847-3.1843-1.0916-5.6885-3.5574-8.9003-4.5749-2.4356-0.4443-4.9562-0.0713-7.2903 0.6994-4.745 1.4619-9.2212 3.7165-14.065 4.8684-4.659 1.069-9.3909 1.7581-14.125 2.4027 4.7342 0.6446 9.4661 1.3337 14.125 2.4027 4.8437 1.152 9.3199 3.4065 14.065 4.8684 2.3341 0.7707 4.8547 1.1437 7.2903 0.6994 3.2118-1.0176 5.7159-3.4833 8.9003-4.5749 4.3116-1.5003 8.8783-1.9803 13.338-2.847 0.8484-0.1896 1.7074-0.3524 2.5571-0.5486-0.8497-0.1963-1.7087-0.359-2.5571-0.5486zm9.2881-21.326c-2.5406-3.7664-5.4304-7.3349-7.4183-11.445-1.4798-3.0235-1.5069-6.5378-3.0585-9.5284-1.408-2.0364-3.4541-3.555-5.6496-4.6605-4.3889-2.3215-9.1483-3.8924-13.388-6.5029-4.0503-2.5385-7.8835-5.3972-11.687-8.289 2.8918 3.8034 5.7505 7.6366 8.289 11.687 2.6105 4.2396 4.1814 8.999 6.5029 13.388 1.1055 2.1954 2.6241 4.2415 4.6605 5.6496 2.9906 1.5515 6.5049 1.5787 9.5284 3.0585 4.1097 1.9879 7.6782 4.8777 11.445 7.4183 0.7339 0.4659 1.4564 0.9582 2.196 1.4202-0.4621-0.7396-0.9544-1.4621-1.4202-2.196z"/>
		<path d="m206.59-319.95c1.8486 5.3319 4.1608 10.573 7.5152 15.146 0.2907 0.4498 0.6857 0.8969 0.6555 1.4729-0.2469 0.5979-0.7515 1.0368-1.1629 1.5222-2.3341 2.6001-4.2047 5.587-5.7351 8.7193-3.3763 6.942-5.2579 14.523-6.2645 22.151-0.5129 3.5327-0.6747 7.101-0.5979 10.667-0.0767 3.1964 0.4092 6.5598-0.7249 9.6143 1.3579-2.9619 4.0797-4.9965 6.2857-7.311 2.5756-2.4669 4.9843-5.1046 7.1196-7.9652 4.6818-6.1053 8.7119-12.796 11.233-20.092 1.1326-3.297 1.922-6.7318 2.1101-10.221 0.0524-0.6342 0.0058-1.3014 0.2541-1.8987 0.3859-0.4286 0.9813-0.4655 1.505-0.5779 5.605-0.8611 10.946-2.9324 16.024-5.3955 9.2422-4.5331 17.61-10.534 25.906-16.589-6.055 8.2963-12.056 16.664-16.589 25.906-2.4631 5.0774-4.5344 10.419-5.3955 16.024-0.1125 0.5237-0.1493 1.119-0.578 1.505-0.5973 0.2482-1.2645 0.2017-1.8987 0.2541-3.489 0.1881-6.9238 0.9774-10.221 2.1101-7.2962 2.5213-13.987 6.5514-20.092 11.233-2.8606 2.1353-5.4983 4.5441-7.9652 7.1197-2.3145 2.206-4.3491 4.9278-7.311 6.2857 3.0546-1.1342 6.4179-0.6482 9.6143-0.7249 3.5656 0.0768 7.1339-0.085 10.667-0.5979 7.6276-1.0066 15.209-2.8882 22.151-6.2645 3.1322-1.5305 6.1191-3.401 8.7193-5.7351 0.4855-0.4114 0.9243-0.9161 1.5222-1.1629 0.576-0.0302 1.023 0.3648 1.4729 0.6555 4.5722 3.3544 9.8136 5.6666 15.146 7.5152 9.7406 3.3299 19.9 5.0033 30.048 6.5881-10.148 1.5849-20.308 3.2582-30.048 6.5881-5.3319 1.8486-10.573 4.1608-15.146 7.5152-0.4498 0.2907-0.8969 0.6857-1.4729 0.6555-0.5979-0.2469-1.0368-0.7515-1.5222-1.1629-2.6001-2.3341-5.587-4.2047-8.7193-5.7351-6.942-3.3763-14.523-5.2579-22.151-6.2645-3.5327-0.5129-7.101-0.6747-10.667-0.5979-3.1964-0.0767-6.5598 0.4092-9.6143-0.725 2.9619 1.3579 4.9965 4.0798 7.311 6.2857 2.4669 2.5756 5.1046 4.9843 7.9652 7.1197 6.1053 4.6818 12.796 8.7119 20.092 11.233 3.297 1.1326 6.7318 1.922 10.221 2.1101 0.6342 0.0524 1.3014 0.0058 1.8987 0.2541 0.4286 0.3859 0.4655 0.9813 0.578 1.505 0.8611 5.605 2.9324 10.946 5.3955 16.024 4.5331 9.2422 10.534 17.61 16.589 25.906-8.2963-6.055-16.664-12.056-25.906-16.589-5.0774-2.4631-10.419-4.5344-16.024-5.3955-0.5237-0.1125-1.119-0.1493-1.505-0.578-0.2482-0.5973-0.2017-1.2645-0.2541-1.8987-0.1881-3.489-0.9775-6.9238-2.1101-10.221-2.5213-7.2962-6.5514-13.987-11.233-20.092-2.1353-2.8607-4.5441-5.4983-7.1197-7.9652-2.206-2.3145-4.9278-4.3491-6.2857-7.311 1.1342 3.0546 0.6482 6.4179 0.725 9.6143-0.0768 3.5656 0.085 7.134 0.5979 10.667 1.0066 7.6276 2.8882 15.209 6.2645 22.151 1.5305 3.1322 3.401 6.1191 5.7351 8.7193 0.4114 0.4855 0.9161 0.9243 1.1629 1.5222 0.0302 0.576-0.3648 1.023-0.6555 1.4729-3.3544 4.5722-5.6666 9.8136-7.5152 15.146-3.33 9.7403-5.0033 19.9-6.5882 30.048-1.5848-10.148-3.2582-20.308-6.5881-30.048-1.8486-5.3319-4.1608-10.573-7.5152-15.146-0.2907-0.4498-0.6857-0.8969-0.6555-1.4729 0.2469-0.5979 0.7515-1.0368 1.1629-1.5222 2.3341-2.6001 4.2047-5.587 5.7351-8.7193 3.3763-6.942 5.2579-14.523 6.2645-22.151 0.5129-3.5327 0.6747-7.101 0.5979-10.667 0.0767-3.1964-0.4092-6.5598 0.7249-9.6143-1.3579 2.9619-4.0797 4.9965-6.2857 7.311-2.5756 2.4669-4.9843 5.1046-7.1196 7.9652-4.6818 6.1053-8.7119 12.796-11.233 20.092-1.1326 3.297-1.922 6.7318-2.1101 10.221-0.0524 0.6342-0.0058 1.3014-0.2541 1.8987-0.3859 0.4286-0.9813 0.4655-1.505 0.578-5.605 0.8611-10.946 2.9324-16.024 5.3955-9.2422 4.5331-17.61 10.534-25.906 16.589 6.055-8.2963 12.056-16.664 16.589-25.906 2.4631-5.0774 4.5344-10.419 5.3955-16.024 0.1125-0.5237 0.1493-1.119 0.578-1.505 0.5973-0.2482 1.2645-0.2017 1.8987-0.2541 3.489-0.1881 6.9238-0.9775 10.221-2.1101 7.2961-2.5213 13.987-6.5514 20.092-11.233 2.8607-2.1353 5.4983-4.5441 7.9652-7.1196 2.3145-2.206 4.3491-4.9278 7.311-6.2857-3.0546 1.1342-6.4179 0.6482-9.6143 0.7249-3.5656-0.0768-7.134 0.085-10.667 0.5979-7.6276 1.0066-15.209 2.8882-22.151 6.2645-3.1323 1.5305-6.1191 3.401-8.7193 5.7351-0.4855 0.4114-0.9243 0.9161-1.5222 1.1629-0.576 0.0302-1.023-0.3648-1.4729-0.6555-4.5722-3.3544-9.8136-5.6666-15.146-7.5152-9.7405-3.3299-19.9-5.0032-30.048-6.5881 10.148-1.5849 20.308-3.2582 30.048-6.5882 5.3319-1.8486 10.573-4.1608 15.146-7.5152 0.4498-0.2907 0.8969-0.6857 1.4729-0.6555 0.5979 0.2469 1.0368 0.7515 1.5222 1.1629 2.6001 2.3341 5.587 4.2047 8.7193 5.7351 6.942 3.3763 14.523 5.2579 22.151 6.2645 3.5327 0.5129 7.101 0.6747 10.667 0.5979 3.1964 0.0767 6.5598-0.4092 9.6143 0.725-2.9619-1.3579-4.9965-4.0798-7.311-6.2858-2.4669-2.5756-5.1046-4.9843-7.9652-7.1196-6.1053-4.6818-12.796-8.7119-20.092-11.233-3.297-1.1327-6.7318-1.922-10.221-2.1101-0.6342-0.0524-1.3014-0.0058-1.8987-0.2541-0.4286-0.3859-0.4655-0.9814-0.578-1.505-0.8611-5.6049-2.9324-10.946-5.3955-16.024-4.5331-9.2422-10.534-17.61-16.589-25.906 8.2963 6.055 16.664 12.056 25.906 16.589 5.0774 2.4631 10.419 4.5344 16.024 5.3955 0.5237 0.1125 1.119 0.1494 1.505 0.578 0.2482 0.5974 0.2017 1.2645 0.2541 1.8987 0.1881 3.489 0.9775 6.9238 2.1101 10.221 2.5213 7.2961 6.5514 13.987 11.233 20.092 2.1353 2.8607 4.5441 5.4983 7.1196 7.9652 2.206 2.3145 4.9278 4.3491 6.2857 7.311-1.1342-3.0546-0.6482-6.4179-0.7249-9.6143 0.0768-3.5656-0.085-7.1339-0.5979-10.667-1.0066-7.6276-2.8882-15.209-6.2645-22.151-1.5305-3.1323-3.401-6.1191-5.7351-8.7193-0.4114-0.4855-0.9161-0.9243-1.1629-1.5222-0.0302-0.576 0.3648-1.023 0.6555-1.4729 3.3544-4.5722 5.6666-9.8136 7.5152-15.146 3.3299-9.7406 5.0033-19.9 6.5881-30.048 1.5848 10.148 3.2581 20.308 6.5881 30.048zm-6.0396 39.564c0.8667-4.4597 1.3467-9.0265 2.847-13.338 1.0916-3.1843 3.5574-5.6885 4.5749-8.9003 0.4443-2.4356 0.0713-4.9562-0.6994-7.2903-1.4619-4.745-3.7164-9.2212-4.8684-14.065-1.069-4.659-1.7581-9.3909-2.4027-14.125-0.6446 4.7342-1.3337 9.4661-2.4027 14.125-1.152 4.8438-3.4065 9.3199-4.8684 14.065-0.7707 2.3341-1.1437 4.8547-0.6994 7.2903 1.0176 3.2118 3.4833 5.7159 4.5749 8.9003 1.5003 4.3116 1.9803 8.8784 2.847 13.338 0.1895 0.8484 0.3523 1.7074 0.5486 2.557 0.1963-0.8496 0.359-1.7086 0.5486-2.557zm21.326 9.288c3.7664-2.5406 7.3349-5.4304 11.445-7.4183 3.0236-1.4798 6.5378-1.5069 9.5284-3.0585 2.0364-1.408 3.555-3.4541 4.6604-5.6496 2.3215-4.3889 3.8924-9.1483 6.5029-13.388 2.5385-4.0503 5.3972-7.8835 8.289-11.687-3.8034 2.8918-7.6366 5.7505-11.687 8.289-4.2396 2.6105-8.999 4.1814-13.388 6.5029-2.1954 1.1055-4.2415 2.6241-5.6496 4.6605-1.5515 2.9906-1.5787 6.5049-3.0585 9.5284-1.9879 4.1096-4.8777 7.6782-7.4183 11.445-0.4659 0.7339-0.9582 1.4564-1.4202 2.196 0.7397-0.462 1.4622-0.9543 2.1961-1.4202zm8.5123 21.648c4.4597 0.8667 9.0265 1.3467 13.338 2.847 3.1844 1.0916 5.6885 3.5574 8.9003 4.5749 2.4356 0.4443 4.9562 0.0713 7.2903-0.6994 4.745-1.4619 9.2212-3.7164 14.065-4.8684 4.659-1.069 9.3909-1.7581 14.125-2.4027-4.7342-0.6446-9.4661-1.3337-14.125-2.4027-4.8437-1.152-9.3199-3.4065-14.065-4.8684-2.3341-0.7707-4.8547-1.1437-7.2903-0.6994-3.2118 1.0176-5.7159 3.4833-8.9003 4.5749-4.3116 1.5003-8.8784 1.9803-13.338 2.847-0.8484 0.1896-1.7074 0.3523-2.5571 0.5486 0.8497 0.1962 1.7087 0.359 2.5571 0.5486zm-9.288 21.326c2.5406 3.7664 5.4304 7.3349 7.4183 11.445 1.4798 3.0236 1.5069 6.5378 3.0585 9.5284 1.408 2.0364 3.4541 3.555 5.6496 4.6604 4.3889 2.3215 9.1483 3.8924 13.388 6.5029 4.0503 2.5385 7.8835 5.3972 11.687 8.289-2.8918-3.8034-5.7505-7.6366-8.289-11.687-2.6105-4.2396-4.1814-8.999-6.5029-13.388-1.1055-2.1954-2.6241-4.2415-4.6604-5.6496-2.9906-1.5515-6.5049-1.5787-9.5284-3.0585-4.1096-1.9879-7.6782-4.8777-11.445-7.4183-0.7339-0.4659-1.4564-0.9582-2.196-1.4202 0.4619 0.7397 0.9542 1.4622 1.4201 2.1961zm-21.648 8.5123c-0.8667 4.4597-1.3467 9.0265-2.847 13.338-1.0916 3.1844-3.5574 5.6885-4.5749 8.9003-0.4443 2.4356-0.0713 4.9562 0.6994 7.2903 1.4619 4.745 3.7164 9.2212 4.8684 14.065 1.069 4.659 1.7581 9.3909 2.4027 14.125 0.6446-4.7342 1.3337-9.4661 2.4027-14.125 1.152-4.8437 3.4065-9.3199 4.8684-14.065 0.7707-2.3341 1.1437-4.8547 0.6994-7.2903-1.0176-3.2118-3.4833-5.7159-4.5749-8.9003-1.5003-4.3116-1.9803-8.8784-2.847-13.338-0.1895-0.8484-0.3523-1.7074-0.5486-2.5571-0.1962 0.8497-0.359 1.7087-0.5486 2.5571zm-21.326-9.2881c-3.7664 2.5406-7.3349 5.4304-11.445 7.4183-3.0236 1.4798-6.5378 1.5069-9.5284 3.0585-2.0364 1.408-3.555 3.4541-4.6605 5.6496-2.3215 4.3889-3.8924 9.1483-6.5029 13.388-2.5385 4.0503-5.3972 7.8835-8.289 11.687 3.8034-2.8918 7.6366-5.7505 11.687-8.289 4.2396-2.6105 8.999-4.1814 13.388-6.5029 2.1954-1.1055 4.2415-2.6241 5.6496-4.6604 1.5515-2.9906 1.5787-6.5049 3.0585-9.5284 1.9879-4.1096 4.8777-7.6782 7.4183-11.445 0.4659-0.7339 0.9582-1.4564 1.4202-2.196-0.7396 0.462-1.4621 0.9543-2.196 1.4201zm-8.5123-21.648c-4.4597-0.8667-9.0265-1.3467-13.338-2.847-3.1843-1.0916-5.6885-3.5574-8.9003-4.5749-2.4356-0.4443-4.9562-0.0713-7.2903 0.6994-4.745 1.4619-9.2212 3.7164-14.065 4.8684-4.659 1.069-9.3909 1.7581-14.125 2.4027 4.7342 0.6446 9.4661 1.3337 14.125 2.4027 4.8437 1.152 9.3199 3.4065 14.065 4.8684 2.3341 0.7707 4.8547 1.1437 7.2903 0.6994 3.2118-1.0176 5.7159-3.4833 8.9003-4.5749 4.3116-1.5003 8.8784-1.9803 13.338-2.847 0.8484-0.1896 1.7074-0.3523 2.5571-0.5486-0.8497-0.1963-1.7087-0.359-2.5571-0.5486zm9.2881-21.326c-2.5406-3.7664-5.4304-7.3349-7.4183-11.445-1.4798-3.0236-1.5069-6.5378-3.0585-9.5284-1.408-2.0364-3.4541-3.555-5.6496-4.6605-4.3889-2.3215-9.1483-3.8924-13.388-6.5029-4.0503-2.5385-7.8835-5.3972-11.687-8.289 2.8918 3.8034 5.7505 7.6366 8.289 11.687 2.6105 4.2396 4.1814 8.999 6.5029 13.388 1.1055 2.1954 2.6241 4.2415 4.6605 5.6495 2.9906 1.5515 6.5049 1.5787 9.5284 3.0585 4.1097 1.9879 7.6782 4.8777 11.445 7.4183 0.7339 0.4659 1.4564 0.9582 2.196 1.4202-0.4621-0.7395-0.9544-1.462-1.4202-2.1959z"/>
		<path d="m306.59-469.95c1.8486 5.3319 4.1608 10.573 7.5152 15.146 0.2907 0.4498 0.6857 0.8969 0.6555 1.4729-0.2469 0.5979-0.7515 1.0368-1.1629 1.5222-2.3341 2.6001-4.2047 5.587-5.7351 8.7193-3.3763 6.942-5.2579 14.523-6.2645 22.151-0.5129 3.5327-0.6747 7.101-0.5979 10.667-0.0767 3.1964 0.4092 6.5598-0.7249 9.6143 1.3579-2.9619 4.0797-4.9965 6.2857-7.311 2.5756-2.4669 4.9843-5.1046 7.1197-7.9652 4.6818-6.1053 8.7119-12.796 11.233-20.092 1.1326-3.297 1.922-6.7318 2.1101-10.221 0.0524-0.6342 0.0058-1.3014 0.2541-1.8987 0.386-0.4286 0.9814-0.4655 1.505-0.5779 5.6049-0.8611 10.946-2.9324 16.024-5.3955 9.2422-4.5331 17.61-10.534 25.906-16.589-6.055 8.2963-12.056 16.664-16.589 25.906-2.4631 5.0774-4.5344 10.419-5.3955 16.024-0.1125 0.5237-0.1493 1.119-0.5779 1.505-0.5974 0.2482-1.2645 0.2017-1.8987 0.2541-3.489 0.1881-6.9238 0.9774-10.221 2.1101-7.2961 2.5213-13.987 6.5514-20.092 11.233-2.8607 2.1353-5.4983 4.5441-7.9652 7.1197-2.3145 2.206-4.3491 4.9278-7.311 6.2857 3.0546-1.1342 6.4179-0.6483 9.6143-0.725 3.5656 0.0768 7.134-0.085 10.667-0.5979 7.6276-1.0066 15.209-2.8882 22.151-6.2645 3.1323-1.5305 6.1191-3.401 8.7193-5.7351 0.4855-0.4114 0.9243-0.9161 1.5222-1.1629 0.576-0.0302 1.023 0.3648 1.4729 0.6555 4.5722 3.3544 9.8136 5.6666 15.146 7.5152 9.7406 3.3299 19.9 5.0033 30.048 6.5881-10.148 1.5848-20.308 3.2582-30.048 6.5881-5.3319 1.8486-10.573 4.1608-15.146 7.5152-0.4498 0.2907-0.8969 0.6857-1.4729 0.6555-0.5979-0.2469-1.0368-0.7515-1.5222-1.1629-2.6001-2.3341-5.587-4.2047-8.7193-5.7351-6.942-3.3763-14.523-5.2579-22.151-6.2645-3.5327-0.5129-7.101-0.6747-10.667-0.5979-3.1964-0.0767-6.5598 0.4092-9.6143-0.7249 2.9619 1.3579 4.9965 4.0797 7.311 6.2857 2.4669 2.5756 5.1046 4.9843 7.9652 7.1196 6.1053 4.6818 12.796 8.7119 20.092 11.233 3.297 1.1326 6.7318 1.922 10.221 2.1101 0.6342 0.0524 1.3014 0.0058 1.8987 0.2541 0.4286 0.386 0.4655 0.9814 0.5779 1.505 0.8611 5.6049 2.9324 10.946 5.3955 16.024 4.5331 9.2422 10.534 17.61 16.589 25.906-8.2963-6.055-16.664-12.056-25.906-16.589-5.0775-2.4631-10.419-4.5344-16.024-5.3955-0.5237-0.1125-1.119-0.1493-1.505-0.5779-0.2482-0.5974-0.2017-1.2645-0.2541-1.8987-0.1881-3.489-0.9775-6.9238-2.1101-10.221-2.5213-7.2961-6.5514-13.987-11.233-20.092-2.1353-2.8607-4.5441-5.4983-7.1196-7.9652-2.206-2.3145-4.9278-4.3491-6.2857-7.311 1.1342 3.0545 0.6482 6.4179 0.7249 9.6143-0.0768 3.5656 0.085 7.134 0.5979 10.667 1.0066 7.6276 2.8882 15.209 6.2645 22.151 1.5305 3.1323 3.401 6.1191 5.7351 8.7193 0.4114 0.4855 0.9161 0.9243 1.1629 1.5222 0.0302 0.576-0.3648 1.023-0.6555 1.4729-3.3544 4.5722-5.6666 9.8136-7.5152 15.146-3.3302 9.7402-5.0035 19.9-6.5884 30.048-1.5849-10.148-3.2582-20.308-6.5881-30.048-1.8486-5.3319-4.1608-10.573-7.5152-15.146-0.2907-0.4498-0.6857-0.8969-0.6555-1.4729 0.2469-0.5979 0.7515-1.0368 1.1629-1.5222 2.3341-2.6001 4.2047-5.587 5.7351-8.7193 3.3763-6.942 5.2579-14.523 6.2645-22.151 0.5129-3.5327 0.6747-7.101 0.5979-10.667 0.0767-3.1964-0.4092-6.5598 0.725-9.6143-1.3579 2.9619-4.0798 4.9965-6.2857 7.311-2.5756 2.4669-4.9843 5.1046-7.1197 7.9652-4.6818 6.1053-8.7119 12.796-11.233 20.092-1.1327 3.297-1.922 6.7318-2.1101 10.221-0.0524 0.6342-0.0058 1.3014-0.2541 1.8987-0.3859 0.4286-0.9814 0.4655-1.505 0.5779-5.6049 0.8611-10.946 2.9324-16.024 5.3955-9.2422 4.5331-17.61 10.534-25.906 16.589 6.055-8.2963 12.056-16.664 16.589-25.906 2.4631-5.0775 4.5344-10.419 5.3955-16.024 0.1125-0.5237 0.1493-1.119 0.578-1.505 0.5973-0.2482 1.2645-0.2017 1.8987-0.2541 3.489-0.1881 6.9238-0.9775 10.221-2.1101 7.2961-2.5213 13.987-6.5514 20.092-11.233 2.8606-2.1353 5.4983-4.5441 7.9652-7.1197 2.3145-2.206 4.3491-4.9278 7.311-6.2857-3.0546 1.1342-6.4179 0.6483-9.6143 0.725-3.5656-0.0768-7.1339 0.085-10.667 0.5979-7.6276 1.0066-15.209 2.8882-22.151 6.2645-3.1322 1.5305-6.1191 3.401-8.7193 5.7351-0.4855 0.4114-0.9243 0.9161-1.5222 1.1629-0.576 0.0302-1.023-0.3648-1.4729-0.6555-4.5722-3.3544-9.8136-5.6666-15.146-7.5152-9.7405-3.3297-19.9-5.003-30.048-6.5879 10.148-1.5848 20.308-3.2582 30.048-6.5881 5.3319-1.8486 10.573-4.1608 15.146-7.5152 0.4498-0.2907 0.8969-0.6857 1.4729-0.6555 0.5979 0.2469 1.0368 0.7515 1.5222 1.1629 2.6001 2.3341 5.587 4.2047 8.7193 5.7351 6.942 3.3763 14.523 5.2579 22.151 6.2645 3.5327 0.5129 7.101 0.6747 10.667 0.5979 3.1964 0.0767 6.5598-0.4092 9.6143 0.7249-2.9619-1.3579-4.9965-4.0797-7.311-6.2857-2.4669-2.5756-5.1046-4.9843-7.9652-7.1196-6.1053-4.6818-12.796-8.7119-20.092-11.233-3.297-1.1327-6.7318-1.922-10.221-2.1101-0.6342-0.0524-1.3014-0.0058-1.8987-0.2541-0.4286-0.3859-0.4655-0.9814-0.578-1.505-0.8611-5.6049-2.9324-10.946-5.3955-16.024-4.5331-9.2422-10.534-17.61-16.589-25.906 8.2963 6.055 16.664 12.056 25.906 16.589 5.0774 2.4631 10.419 4.5344 16.024 5.3955 0.5237 0.1125 1.119 0.1494 1.505 0.578 0.2482 0.5974 0.2017 1.2645 0.2541 1.8987 0.1881 3.489 0.9774 6.9238 2.1101 10.221 2.5213 7.2961 6.5514 13.987 11.233 20.092 2.1353 2.8607 4.5441 5.4983 7.1197 7.9652 2.206 2.3145 4.9278 4.3491 6.2857 7.311-1.1342-3.0545-0.6483-6.4179-0.725-9.6143 0.0768-3.5656-0.085-7.1339-0.5979-10.667-1.0066-7.6276-2.8882-15.209-6.2645-22.151-1.5305-3.1323-3.401-6.1191-5.7351-8.7193-0.4114-0.4855-0.9161-0.9243-1.1629-1.5222-0.0302-0.576 0.3648-1.023 0.6555-1.4729 3.3544-4.5722 5.6666-9.8136 7.5152-15.146 3.3299-9.7406 5.0033-19.9 6.5881-30.048 1.5848 10.148 3.2581 20.308 6.5881 30.048zm-6.0396 39.564c0.8667-4.4597 1.3467-9.0265 2.847-13.338 1.0916-3.1843 3.5574-5.6885 4.575-8.9003 0.4443-2.4356 0.0713-4.9562-0.6994-7.2903-1.4619-4.745-3.7165-9.2212-4.8684-14.065-1.0689-4.659-1.7581-9.3909-2.4026-14.125-0.6446 4.7342-1.3337 9.4661-2.4027 14.125-1.1519 4.8438-3.4065 9.3199-4.8684 14.065-0.7707 2.3341-1.1437 4.8547-0.6994 7.2903 1.0175 3.2118 3.4833 5.7159 4.5749 8.9003 1.5003 4.3116 1.9803 8.8784 2.847 13.338 0.1896 0.8484 0.3523 1.7074 0.5486 2.557 0.1961-0.8496 0.3588-1.7086 0.5484-2.557zm21.326 9.288c3.7664-2.5406 7.335-5.4304 11.445-7.4183 3.0236-1.4798 6.5378-1.5069 9.5284-3.0585 2.0364-1.408 3.555-3.4541 4.6605-5.6496 2.3215-4.3889 3.8924-9.1483 6.5029-13.388 2.5385-4.0503 5.3972-7.8835 8.289-11.687-3.8034 2.8918-7.6366 5.7505-11.687 8.289-4.2396 2.6105-8.999 4.1814-13.388 6.5029-2.1954 1.1055-4.2415 2.6241-5.6496 4.6605-1.5515 2.9906-1.5787 6.5049-3.0585 9.5284-1.9879 4.1096-4.8777 7.6782-7.4183 11.445-0.4659 0.7339-0.9582 1.4564-1.4202 2.196 0.7396-0.462 1.4621-0.9543 2.196-1.4202zm8.5123 21.648c4.4597 0.8667 9.0265 1.3467 13.338 2.847 3.1844 1.0916 5.6885 3.5574 8.9003 4.575 2.4356 0.4443 4.9562 0.0713 7.2903-0.6994 4.745-1.4619 9.2212-3.7164 14.065-4.8684 4.659-1.069 9.3909-1.7581 14.125-2.4027-4.7342-0.6446-9.4661-1.3337-14.125-2.4027-4.8437-1.1519-9.3199-3.4065-14.065-4.8684-2.3341-0.7707-4.8547-1.1437-7.2903-0.6994-3.2118 1.0176-5.7159 3.4833-8.9003 4.575-4.3116 1.5003-8.8784 1.9803-13.338 2.847-0.8484 0.1895-1.7074 0.3523-2.5571 0.5486 0.8497 0.196 1.7088 0.3588 2.5571 0.5484zm-9.288 21.326c2.5406 3.7664 5.4304 7.335 7.4183 11.445 1.4798 3.0236 1.5069 6.5378 3.0585 9.5284 1.4081 2.0364 3.4541 3.555 5.6496 4.6604 4.3889 2.3215 9.1483 3.8925 13.388 6.5029 4.0503 2.5385 7.8835 5.3972 11.687 8.289-2.8918-3.8034-5.7505-7.6366-8.289-11.687-2.6105-4.2396-4.1814-8.999-6.5029-13.388-1.1055-2.1954-2.6241-4.2415-4.6605-5.6496-2.9906-1.5515-6.5049-1.5787-9.5284-3.0585-4.1096-1.9879-7.6782-4.8777-11.445-7.4184-0.7339-0.4659-1.4564-0.9582-2.196-1.4202 0.462 0.7398 0.9543 1.4623 1.4202 2.1962zm-21.648 8.5123c-0.8667 4.4597-1.3467 9.0265-2.847 13.338-1.0916 3.1844-3.5574 5.6885-4.575 8.9003-0.4443 2.4356-0.0713 4.9562 0.6994 7.2903 1.4619 4.745 3.7165 9.2212 4.8684 14.065 1.069 4.659 1.7581 9.3909 2.4026 14.125 0.6446-4.7342 1.3337-9.4661 2.4027-14.125 1.1519-4.8438 3.4065-9.3199 4.8684-14.065 0.7707-2.3341 1.1437-4.8547 0.6994-7.2903-1.0175-3.2118-3.4833-5.7159-4.5749-8.9003-1.5003-4.3116-1.9803-8.8784-2.847-13.338-0.1896-0.8484-0.3523-1.7074-0.5486-2.5571-0.196 0.8497-0.3588 1.7087-0.5484 2.5571zm-21.326-9.288c-3.7664 2.5406-7.335 5.4304-11.445 7.4183-3.0236 1.4798-6.5378 1.5069-9.5284 3.0585-2.0364 1.408-3.555 3.4541-4.6605 5.6496-2.3215 4.3889-3.8924 9.1483-6.5029 13.388-2.5385 4.0503-5.3972 7.8835-8.289 11.687 3.8034-2.8918 7.6366-5.7505 11.687-8.289 4.2396-2.6105 8.9989-4.1814 13.388-6.5029 2.1954-1.1055 4.2415-2.6241 5.6496-4.6604 1.5515-2.9906 1.5787-6.5049 3.0585-9.5284 1.9879-4.1096 4.8777-7.6782 7.4183-11.445 0.4659-0.7339 0.9582-1.4564 1.4202-2.196-0.7396 0.4619-1.4621 0.9542-2.196 1.4201zm-8.5123-21.648c-4.4597-0.8667-9.0264-1.3467-13.338-2.847-3.1843-1.0916-5.6885-3.5574-8.9003-4.5749-2.4356-0.4443-4.9562-0.0713-7.2903 0.6994-4.745 1.4619-9.2212 3.7164-14.065 4.8684-4.659 1.069-9.3909 1.7581-14.125 2.4027 4.7342 0.6446 9.4661 1.3337 14.125 2.4026 4.8437 1.152 9.3199 3.4065 14.065 4.8684 2.3341 0.7707 4.8547 1.1437 7.2903 0.6994 3.2118-1.0175 5.7159-3.4833 8.9003-4.5749 4.3116-1.5003 8.8784-1.9803 13.338-2.847 0.8484-0.1895 1.7074-0.3523 2.5571-0.5486-0.8497-0.1962-1.7087-0.3589-2.5571-0.5485zm9.2881-21.326c-2.5406-3.7664-5.4304-7.3349-7.4183-11.445-1.4798-3.0236-1.5069-6.5378-3.0585-9.5284-1.408-2.0364-3.4541-3.555-5.6496-4.6605-4.3889-2.3215-9.1483-3.8924-13.388-6.5029-4.0503-2.5385-7.8835-5.3972-11.687-8.289 2.8918 3.8034 5.7505 7.6366 8.289 11.687 2.6105 4.2396 4.1814 8.999 6.5029 13.388 1.1055 2.1954 2.6241 4.2415 4.6605 5.6495 2.9906 1.5515 6.5049 1.5787 9.5284 3.0585 4.1096 1.9879 7.6782 4.8777 11.445 7.4183 0.7339 0.4659 1.4564 0.9582 2.196 1.4202-0.4621-0.7395-0.9544-1.462-1.4202-2.1959z"/>
		<path d="m106.59-469.95c1.8486 5.3319 4.1608 10.573 7.5152 15.146 0.2907 0.4498 0.6857 0.8969 0.6555 1.4729-0.2469 0.5979-0.7515 1.0368-1.1629 1.5222-2.3341 2.6001-4.2047 5.587-5.7351 8.7193-3.3763 6.942-5.2579 14.523-6.2645 22.151-0.5129 3.5327-0.6747 7.101-0.5979 10.667-0.0767 3.1964 0.4092 6.5598-0.725 9.6143 1.3579-2.9619 4.0798-4.9965 6.2857-7.311 2.5756-2.4669 4.9843-5.1046 7.1197-7.9652 4.6818-6.1053 8.7119-12.796 11.233-20.092 1.1326-3.297 1.922-6.7318 2.1101-10.221 0.0524-0.6342 0.0058-1.3014 0.2541-1.8987 0.3859-0.4286 0.9813-0.4655 1.505-0.5779 5.605-0.8611 10.946-2.9324 16.024-5.3955 9.2422-4.5331 17.61-10.534 25.906-16.589-6.055 8.2963-12.056 16.664-16.589 25.906-2.4631 5.0774-4.5344 10.419-5.3955 16.024-0.1125 0.5237-0.1493 1.119-0.578 1.505-0.5973 0.2482-1.2645 0.2017-1.8987 0.2541-3.489 0.1881-6.9238 0.9774-10.221 2.1101-7.2962 2.5213-13.987 6.5514-20.092 11.233-2.8606 2.1353-5.4983 4.5441-7.9652 7.1197-2.3145 2.206-4.3491 4.9278-7.311 6.2857 3.0546-1.1342 6.4179-0.6483 9.6143-0.725 3.5656 0.0768 7.134-0.085 10.667-0.5979 7.6276-1.0066 15.209-2.8882 22.151-6.2645 3.1322-1.5305 6.1191-3.401 8.7193-5.7351 0.4855-0.4114 0.9243-0.9161 1.5222-1.1629 0.576-0.0302 1.023 0.3648 1.4729 0.6555 4.5722 3.3544 9.8136 5.6666 15.146 7.5152 9.7406 3.3299 19.9 5.0033 30.048 6.5881-10.148 1.5848-20.308 3.2582-30.048 6.5881-5.3319 1.8486-10.573 4.1608-15.146 7.5152-0.4498 0.2907-0.8969 0.6857-1.4729 0.6555-0.5979-0.2469-1.0368-0.7515-1.5222-1.1629-2.6001-2.3341-5.587-4.2047-8.7193-5.7351-6.942-3.3763-14.523-5.2579-22.151-6.2645-3.5327-0.5129-7.101-0.6747-10.667-0.5979-3.1964-0.0767-6.5598 0.4092-9.6143-0.7249 2.9619 1.3579 4.9965 4.0797 7.311 6.2857 2.4669 2.5756 5.1046 4.9843 7.9652 7.1196 6.1053 4.6818 12.796 8.7119 20.092 11.233 3.297 1.1326 6.7318 1.922 10.221 2.1101 0.6342 0.0524 1.3014 0.0058 1.8987 0.2541 0.4286 0.386 0.4655 0.9814 0.578 1.505 0.8611 5.6049 2.9324 10.946 5.3955 16.024 4.5331 9.2422 10.534 17.61 16.589 25.906-8.2963-6.055-16.664-12.056-25.906-16.589-5.0774-2.4631-10.419-4.5344-16.024-5.3955-0.5237-0.1125-1.119-0.1493-1.505-0.5779-0.2482-0.5974-0.2017-1.2645-0.2541-1.8987-0.1881-3.489-0.9775-6.9238-2.1101-10.221-2.5213-7.2961-6.5514-13.987-11.233-20.092-2.1353-2.8607-4.5441-5.4983-7.1197-7.9652-2.206-2.3145-4.9278-4.3491-6.2857-7.311 1.1342 3.0545 0.6482 6.4179 0.725 9.6143-0.0768 3.5656 0.085 7.134 0.5979 10.667 1.0066 7.6276 2.8882 15.209 6.2645 22.151 1.5305 3.1323 3.401 6.1191 5.7351 8.7193 0.4114 0.4855 0.9161 0.9243 1.1629 1.5222 0.0302 0.576-0.3648 1.023-0.6555 1.4729-3.3544 4.5722-5.6666 9.8136-7.5152 15.146-3.33 9.7402-5.0033 19.9-6.5882 30.048-1.5848-10.148-3.2582-20.308-6.5881-30.048-1.8486-5.3319-4.1608-10.573-7.5152-15.146-0.2907-0.4498-0.6857-0.8969-0.6555-1.4729 0.2469-0.5979 0.7515-1.0368 1.1629-1.5222 2.3341-2.6001 4.2047-5.587 5.7351-8.7193 3.3763-6.942 5.2579-14.523 6.2645-22.151 0.5129-3.5327 0.6747-7.101 0.5979-10.667 0.0767-3.1964-0.4092-6.5598 0.725-9.6143-1.3579 2.9619-4.0798 4.9965-6.2857 7.311-2.5756 2.4669-4.9843 5.1046-7.1197 7.9652-4.6818 6.1053-8.7119 12.796-11.233 20.092-1.1327 3.297-1.922 6.7318-2.1101 10.221-0.0524 0.6342-0.0058 1.3014-0.2541 1.8987-0.3859 0.4286-0.9813 0.4655-1.505 0.5779-5.605 0.8611-10.946 2.9324-16.024 5.3955-9.2423 4.5331-17.61 10.534-25.906 16.589 6.055-8.2963 12.056-16.664 16.589-25.906 2.4631-5.0775 4.5344-10.419 5.3955-16.024 0.1125-0.5237 0.1493-1.119 0.578-1.505 0.5973-0.2482 1.2645-0.2017 1.8987-0.2541 3.489-0.1881 6.9238-0.9775 10.221-2.1101 7.2961-2.5213 13.987-6.5514 20.092-11.233 2.8606-2.1353 5.4983-4.5441 7.9652-7.1197 2.3145-2.206 4.3491-4.9278 7.311-6.2857-3.0546 1.1342-6.4179 0.6483-9.6143 0.725-3.5656-0.0768-7.134 0.085-10.667 0.5979-7.6276 1.0066-15.209 2.8882-22.151 6.2645-3.1323 1.5305-6.1191 3.401-8.7193 5.7351-0.4855 0.4114-0.9243 0.9161-1.5222 1.1629-0.576 0.0302-1.023-0.3648-1.4729-0.6555-4.5722-3.3544-9.8136-5.6666-15.146-7.5152-9.7405-3.3297-19.9-5.003-30.048-6.5879 10.148-1.5848 20.308-3.2582 30.048-6.5881 5.3319-1.8486 10.573-4.1608 15.146-7.5152 0.4498-0.2907 0.8969-0.6857 1.4729-0.6555 0.5979 0.2469 1.0368 0.7515 1.5222 1.1629 2.6001 2.3341 5.587 4.2047 8.7193 5.7351 6.942 3.3763 14.523 5.2579 22.151 6.2645 3.5327 0.5129 7.101 0.6747 10.667 0.5979 3.1964 0.0767 6.5598-0.4092 9.6143 0.7249-2.9619-1.3579-4.9965-4.0797-7.311-6.2857-2.4669-2.5756-5.1046-4.9843-7.9652-7.1196-6.1053-4.6818-12.796-8.7119-20.092-11.233-3.297-1.1327-6.7318-1.922-10.221-2.1101-0.6342-0.0524-1.3014-0.0058-1.8987-0.2541-0.4286-0.3859-0.4655-0.9814-0.578-1.505-0.8611-5.6049-2.9324-10.946-5.3955-16.024-4.533-9.2422-10.534-17.61-16.589-25.906 8.2963 6.055 16.664 12.056 25.906 16.589 5.0774 2.4631 10.419 4.5344 16.024 5.3955 0.5237 0.1125 1.119 0.1494 1.505 0.578 0.2482 0.5974 0.2017 1.2645 0.2541 1.8987 0.1881 3.489 0.9775 6.9238 2.1101 10.221 2.5213 7.2961 6.5514 13.987 11.233 20.092 2.1353 2.8607 4.5441 5.4983 7.1197 7.9652 2.206 2.3145 4.9278 4.3491 6.2857 7.311-1.1342-3.0545-0.6482-6.4179-0.725-9.6143 0.0768-3.5656-0.085-7.1339-0.5979-10.667-1.0066-7.6276-2.8882-15.209-6.2645-22.151-1.5305-3.1323-3.401-6.1191-5.7351-8.7193-0.4114-0.4855-0.9161-0.9243-1.1629-1.5222-0.0302-0.576 0.3648-1.023 0.6555-1.4729 3.3544-4.5722 5.6666-9.8136 7.5152-15.146 3.3298-9.7406 5.0032-19.9 6.588-30.048 1.5849 10.148 3.2582 20.308 6.5882 30.048zm-6.0396 39.564c0.8667-4.4597 1.3467-9.0265 2.847-13.338 1.0916-3.1843 3.5574-5.6885 4.5749-8.9003 0.4443-2.4356 0.0713-4.9562-0.6994-7.2903-1.4619-4.745-3.7164-9.2212-4.8684-14.065-1.069-4.659-1.7581-9.3909-2.4027-14.125-0.6446 4.7342-1.3337 9.4661-2.4027 14.125-1.152 4.8438-3.4065 9.3199-4.8684 14.065-0.7707 2.3341-1.1437 4.8547-0.6994 7.2903 1.0176 3.2118 3.4833 5.7159 4.5749 8.9003 1.5003 4.3116 1.9803 8.8784 2.847 13.338 0.1896 0.8484 0.3523 1.7074 0.5486 2.557 0.1963-0.8496 0.359-1.7086 0.5486-2.557zm21.326 9.288c3.7664-2.5406 7.3349-5.4304 11.445-7.4183 3.0236-1.4798 6.5378-1.5069 9.5284-3.0585 2.0364-1.408 3.555-3.4541 4.6604-5.6496 2.3215-4.3889 3.8924-9.1483 6.5029-13.388 2.5385-4.0503 5.3972-7.8835 8.289-11.687-3.8034 2.8918-7.6366 5.7505-11.687 8.289-4.2396 2.6105-8.999 4.1814-13.388 6.5029-2.1954 1.1055-4.2415 2.6241-5.6496 4.6605-1.5515 2.9906-1.5787 6.5049-3.0585 9.5284-1.9879 4.1096-4.8777 7.6782-7.4183 11.445-0.4659 0.7339-0.9582 1.4564-1.4202 2.196 0.7397-0.462 1.4622-0.9543 2.1961-1.4202zm8.5123 21.648c4.4597 0.8667 9.0265 1.3467 13.338 2.847 3.1844 1.0916 5.6885 3.5574 8.9003 4.575 2.4356 0.4443 4.9562 0.0713 7.2903-0.6994 4.745-1.4619 9.2212-3.7164 14.065-4.8684 4.659-1.069 9.3909-1.7581 14.125-2.4027-4.7342-0.6446-9.4661-1.3337-14.125-2.4027-4.8437-1.1519-9.3199-3.4065-14.065-4.8684-2.3341-0.7707-4.8547-1.1437-7.2903-0.6994-3.2118 1.0176-5.7159 3.4833-8.9003 4.575-4.3116 1.5003-8.8784 1.9803-13.338 2.847-0.8484 0.1895-1.7074 0.3523-2.5571 0.5486 0.8497 0.196 1.7087 0.3588 2.5571 0.5484zm-9.288 21.326c2.5406 3.7664 5.4304 7.335 7.4183 11.445 1.4798 3.0236 1.5069 6.5378 3.0585 9.5284 1.408 2.0364 3.4541 3.555 5.6496 4.6604 4.3889 2.3215 9.1483 3.8925 13.388 6.5029 4.0503 2.5385 7.8835 5.3972 11.687 8.289-2.8918-3.8034-5.7505-7.6366-8.289-11.687-2.6105-4.2396-4.1814-8.999-6.5029-13.388-1.1055-2.1954-2.6241-4.2415-4.6604-5.6496-2.9906-1.5515-6.5049-1.5787-9.5284-3.0585-4.1096-1.9879-7.6782-4.8777-11.445-7.4184-0.7339-0.4659-1.4564-0.9582-2.196-1.4202 0.4619 0.7398 0.9542 1.4623 1.4201 2.1962zm-21.648 8.5123c-0.8667 4.4597-1.3467 9.0265-2.847 13.338-1.0916 3.1844-3.5574 5.6885-4.5749 8.9003-0.4443 2.4356-0.0713 4.9562 0.6994 7.2903 1.4619 4.745 3.7165 9.2212 4.8684 14.065 1.069 4.659 1.7581 9.3909 2.4027 14.125 0.6446-4.7342 1.3337-9.4661 2.4027-14.125 1.152-4.8438 3.4065-9.3199 4.8684-14.065 0.7707-2.3341 1.1437-4.8547 0.6994-7.2903-1.0176-3.2118-3.4833-5.7159-4.5749-8.9003-1.5003-4.3116-1.9803-8.8784-2.847-13.338-0.1896-0.8484-0.3523-1.7074-0.5486-2.5571-0.1962 0.8497-0.359 1.7087-0.5486 2.5571zm-21.326-9.288c-3.7664 2.5406-7.3349 5.4304-11.445 7.4183-3.0236 1.4798-6.5378 1.5069-9.5284 3.0585-2.0364 1.408-3.555 3.4541-4.6605 5.6496-2.3215 4.3889-3.8924 9.1483-6.5029 13.388-2.5385 4.0503-5.3972 7.8835-8.289 11.687 3.8034-2.8918 7.6366-5.7505 11.687-8.289 4.2396-2.6105 8.999-4.1814 13.388-6.5029 2.1954-1.1055 4.2415-2.6241 5.6496-4.6604 1.5515-2.9906 1.5787-6.5049 3.0585-9.5284 1.9879-4.1096 4.8777-7.6782 7.4183-11.445 0.4659-0.7339 0.9582-1.4564 1.4202-2.196-0.7396 0.4619-1.4621 0.9542-2.196 1.4201zm-8.5123-21.648c-4.4597-0.8667-9.0264-1.3467-13.338-2.847-3.1843-1.0916-5.6885-3.5574-8.9003-4.5749-2.4356-0.4443-4.9562-0.0713-7.2903 0.6994-4.745 1.4619-9.2212 3.7164-14.065 4.8684-4.659 1.069-9.3909 1.7581-14.125 2.4027 4.7342 0.6446 9.4661 1.3337 14.125 2.4026 4.8437 1.152 9.3199 3.4065 14.065 4.8684 2.3341 0.7707 4.8547 1.1437 7.2903 0.6994 3.2118-1.0175 5.7159-3.4833 8.9003-4.5749 4.3116-1.5003 8.8783-1.9803 13.338-2.847 0.8484-0.1895 1.7074-0.3523 2.5571-0.5486-0.8497-0.1962-1.7087-0.3589-2.5571-0.5485zm9.2881-21.326c-2.5406-3.7664-5.4304-7.3349-7.4183-11.445-1.4798-3.0236-1.5069-6.5378-3.0585-9.5284-1.408-2.0364-3.4541-3.555-5.6496-4.6605-4.3889-2.3215-9.1483-3.8924-13.388-6.5029-4.0503-2.5385-7.8835-5.3972-11.687-8.289 2.8918 3.8034 5.7505 7.6366 8.289 11.687 2.6105 4.2396 4.1814 8.999 6.5029 13.388 1.1055 2.1954 2.6241 4.2415 4.6605 5.6495 2.9906 1.5515 6.5049 1.5787 9.5284 3.0585 4.1097 1.9879 7.6782 4.8777 11.445 7.4183 0.7339 0.4659 1.4564 0.9582 2.196 1.4202-0.4621-0.7395-0.9544-1.462-1.4202-2.1959z"/>
</pattern>
<rect width="2560" height="1600" fill="url(#a)"/>
</svg>